<?xml version="1.0" encoding="UTF-8" standalone="no"?>
<svg
   xmlns:dc="http://purl.org/dc/elements/1.1/"
   xmlns:cc="http://creativecommons.org/ns#"
   xmlns:rdf="http://www.w3.org/1999/02/22-rdf-syntax-ns#"
   xmlns:svg="http://www.w3.org/2000/svg"
   xmlns="http://www.w3.org/2000/svg"
   xmlns:sodipodi="http://sodipodi.sourceforge.net/DTD/sodipodi-0.dtd"
   xmlns:inkscape="http://www.inkscape.org/namespaces/inkscape"
   data-name="Layer 1"
   id="Layer_1"
   viewBox="0 0 500 500"
   version="1.1"
   sodipodi:docname="award.svg"
   inkscape:version="0.92.4 (5da689c313, 2019-01-14)">
  <metadata
     id="metadata25">
    <rdf:RDF>
      <cc:Work
         rdf:about="">
        <dc:format>image/svg+xml</dc:format>
        <dc:type
           rdf:resource="http://purl.org/dc/dcmitype/StillImage" />
        <dc:title></dc:title>
      </cc:Work>
    </rdf:RDF>
  </metadata>
  <sodipodi:namedview
     pagecolor="#ffffff"
     bordercolor="#666666"
     borderopacity="1"
     objecttolerance="10"
     gridtolerance="10"
     guidetolerance="10"
     inkscape:pageopacity="0"
     inkscape:pageshadow="2"
     inkscape:window-width="1366"
     inkscape:window-height="705"
     id="namedview23"
     showgrid="false"
     inkscape:zoom="0.472"
     inkscape:cx="250"
     inkscape:cy="250"
     inkscape:window-x="-8"
     inkscape:window-y="-8"
     inkscape:window-maximized="1"
     inkscape:current-layer="Page-1" />
  <defs
     id="defs4">
    <style
       id="style2">.cls-1{fill:#2a73ff;}.cls-2{fill:#fff;stroke:#000;stroke-miterlimit:10;stroke-width:15px;}</style>
  </defs>
  <circle
     class="cls-1"
     cx="250"
     cy="250"
     r="239"
     id="circle8"
     style="fill:#2b2626;stroke:#333333;fill-opacity:1;stroke-opacity:0" />
  <g
     transform="matrix(11.688991,0,0,11.688991,62.608186,56.752328)"
     style="fill:none;fill-rule:evenodd;stroke:none;stroke-width:1"
     id="Page-1">
    <g
       style="fill:#d30014;fill-opacity:1"
       id="icon-34-award">
      <path
         inkscape:connector-curvature="0"
         d="M 15.626362,20.992158 11.601483,31.477328 9.8758451,27.601483 6,29.32712 9.9778999,18.964336 c 1.5805811,1.202153 3.5298561,1.944547 5.6484661,2.027822 z m 6.447844,-2.027822 3.9779,10.362784 -3.875845,-1.725637 -1.725638,3.875845 -4.024879,-10.48517 c 2.118606,-0.08328 4.067881,-0.825669 5.648462,-2.027822 z M 16.026053,20 c 4.970563,0 9,-4.029437 9,-9 0,-4.9705628 -4.029437,-9 -9,-9 -4.970563,0 -9.0000002,4.0294372 -9.0000002,9 0,4.970563 4.0294372,9 9.0000002,9 z m 0,-6.307692 -3.5,2.307692 1.5,-4 -3,-2 h 3.5 l 1.5,-4 1.5,4 h 3.5 l -3,2 1.5,4 z"
         id="award"
         style="fill:#d30014;fill-opacity:1" />
    </g>
  </g>
</svg>
