<?xml version="1.0" encoding="UTF-8" standalone="no"?>
<svg
   xmlns:dc="http://purl.org/dc/elements/1.1/"
   xmlns:cc="http://creativecommons.org/ns#"
   xmlns:rdf="http://www.w3.org/1999/02/22-rdf-syntax-ns#"
   xmlns:svg="http://www.w3.org/2000/svg"
   xmlns="http://www.w3.org/2000/svg"
   xmlns:sodipodi="http://sodipodi.sourceforge.net/DTD/sodipodi-0.dtd"
   xmlns:inkscape="http://www.inkscape.org/namespaces/inkscape"
   data-name="Layer 1"
   id="Layer_1"
   viewBox="0 0 500 500"
   version="1.1"
   sodipodi:docname="causas-ganhas.svg"
   inkscape:version="0.92.4 (5da689c313, 2019-01-14)">
  <metadata
     id="metadata25">
    <rdf:RDF>
      <cc:Work
         rdf:about="">
        <dc:format>image/svg+xml</dc:format>
        <dc:type
           rdf:resource="http://purl.org/dc/dcmitype/StillImage" />
        <dc:title></dc:title>
      </cc:Work>
    </rdf:RDF>
  </metadata>
  <sodipodi:namedview
     pagecolor="#ffffff"
     bordercolor="#666666"
     borderopacity="1"
     objecttolerance="10"
     gridtolerance="10"
     guidetolerance="10"
     inkscape:pageopacity="0"
     inkscape:pageshadow="2"
     inkscape:window-width="1366"
     inkscape:window-height="705"
     id="namedview23"
     showgrid="false"
     inkscape:zoom="0.472"
     inkscape:cx="250"
     inkscape:cy="250"
     inkscape:window-x="-8"
     inkscape:window-y="-8"
     inkscape:window-maximized="1"
     inkscape:current-layer="Layer_1" />
  <defs
     id="defs4">
    <style
       id="style2">.cls-1{fill:#2a73ff;}.cls-2{fill:#fff;stroke:#000;stroke-miterlimit:10;stroke-width:15px;}</style>
  </defs>
  <circle
     class="cls-1"
     cx="250"
     cy="250"
     r="239"
     id="circle8"
     style="fill:#2b2626;stroke:#333333;fill-opacity:1;stroke-opacity:0" />
  <path
     class="cls-2"
     d="M67,293.84h0a21.44,21.44,0,0,1,5.83-30l144.94-96.16L242,203.06,96.54,299.58A21.44,21.44,0,0,1,67,293.84Z"
     id="path10"
     style="stroke:#d30014;fill:#2b2626;fill-opacity:1;stroke-opacity:1" />
  <rect
     class="cls-2"
     height="77.97"
     transform="translate(253.97 -125.33) rotate(56.33)"
     width="120.56"
     x="183.74"
     y="135.52"
     id="rect12"
     style="stroke:#d30014;fill:#2b2626;fill-opacity:1;stroke-opacity:1" />
  <polygon
     class="cls-2"
     points="172.55 157.48 152.43 130.77 236.8 74.58 256.91 101.28 172.55 157.48"
     id="polygon14"
     style="stroke:#d30014;fill:#2b2626;fill-opacity:1;stroke-opacity:1" />
  <polygon
     class="cls-2"
     points="254.84 280.2 234.73 253.5 319.1 197.3 339.21 224 254.84 280.2"
     id="polygon16"
     style="stroke:#d30014;fill:#2b2626;fill-opacity:1;stroke-opacity:1" />
  <path
     class="cls-2"
     d="M346.69,328.85H174.07s3.29,30.41-14.8,30.41h220.3c-18.08,0-14.8-30.41-14.8-30.41H192.15"
     id="path18"
     style="stroke:#d30014;fill:#2b2626;fill-opacity:1;stroke-opacity:1" />
  <path
     class="cls-2"
     d="M364.75,359.27H150.45S154.53,397,132.08,397h273.5c-22.45,0-18.37-37.76-18.37-37.76H172.9"
     id="path20"
     style="stroke:#d30014;fill:#2b2626;fill-opacity:1;stroke-opacity:1" />
</svg>
