<?xml version="1.0" encoding="UTF-8" standalone="no"?>
<svg
   xmlns:dc="http://purl.org/dc/elements/1.1/"
   xmlns:cc="http://creativecommons.org/ns#"
   xmlns:rdf="http://www.w3.org/1999/02/22-rdf-syntax-ns#"
   xmlns:svg="http://www.w3.org/2000/svg"
   xmlns="http://www.w3.org/2000/svg"
   xmlns:sodipodi="http://sodipodi.sourceforge.net/DTD/sodipodi-0.dtd"
   xmlns:inkscape="http://www.inkscape.org/namespaces/inkscape"
   data-name="Layer 1"
   id="Layer_1"
   viewBox="0 0 500 500"
   version="1.1"
   sodipodi:docname="cliente-satisfeito.svg"
   inkscape:version="0.92.4 (5da689c313, 2019-01-14)">
  <metadata
     id="metadata25">
    <rdf:RDF>
      <cc:Work
         rdf:about="">
        <dc:format>image/svg+xml</dc:format>
        <dc:type
           rdf:resource="http://purl.org/dc/dcmitype/StillImage" />
        <dc:title></dc:title>
      </cc:Work>
    </rdf:RDF>
  </metadata>
  <sodipodi:namedview
     pagecolor="#ffffff"
     bordercolor="#666666"
     borderopacity="1"
     objecttolerance="10"
     gridtolerance="10"
     guidetolerance="10"
     inkscape:pageopacity="0"
     inkscape:pageshadow="2"
     inkscape:window-width="1366"
     inkscape:window-height="705"
     id="namedview23"
     showgrid="false"
     inkscape:zoom="0.472"
     inkscape:cx="250"
     inkscape:cy="250"
     inkscape:window-x="-8"
     inkscape:window-y="-8"
     inkscape:window-maximized="1"
     inkscape:current-layer="Layer_1" />
  <defs
     id="defs4">
    <style
       id="style2">.cls-1{fill:#2a73ff;}.cls-2{fill:#fff;stroke:#000;stroke-miterlimit:10;stroke-width:15px;}</style>
  </defs>
  <circle
     class="cls-1"
     cx="250"
     cy="250"
     r="239"
     id="circle8"
     style="fill:#2b2626;stroke:#333333;fill-opacity:1;stroke-opacity:0" />
  <path
     inkscape:connector-curvature="0"
     d="m 371.48538,286.98776 c -3.4688,7.42207 -14.92164,23.04781 -49.4675,23.34494 L 288.7575,299.24159 v -13.38425 c 16.11665,-10.53558 27.6664,-27.42739 31.14811,-47.09681 6.14306,-1.02709 11.65955,-3.79178 16.11665,-7.77089 4.56693,22.24035 16.99516,42.20691 35.46312,55.99812 z"
     id="path854"
     style="fill:#d30014;fill-opacity:1;stroke-width:6.45958281" />
  <path
     inkscape:connector-curvature="0"
     d="m 215.958,311.28872 25.05673,25.05671 c -4.63799,4.03725 -10.52913,6.31102 -16.85306,6.31102 -14.13356,0 -25.61871,-11.40762 -25.80604,-25.50243 z"
     id="path852"
     style="fill:#d30014;fill-opacity:1;stroke-width:6.45958281" />
  <path
     inkscape:connector-curvature="0"
     d="m 251.26608,193.95686 c 19.99241,-3.99848 39.09339,-11.02005 56.87016,-20.89029 v 53.31739 c 0,32.05892 -26.07733,58.13625 -58.13624,58.13625 -32.05891,0 -58.13624,-26.07733 -58.13624,-58.13625 v -38.86084 c 19.70172,-0.74286 39.01587,-5.56817 56.71513,-14.14004 -0.85912,3.44942 -2.08644,6.8084 -3.6755,9.98653 l -6.58877,13.17753 z"
     id="path850"
     style="fill:#d30014;fill-opacity:1;stroke-width:6.45958281" />
  <path
     inkscape:connector-curvature="0"
     d="m 250,297.43937 c 9.12093,0 17.81553,-1.78929 25.83833,-4.93512 v 8.72044 L 250,327.06302 224.16167,301.22469 v -8.72044 c 8.0228,3.14583 16.7174,4.93512 25.83833,4.93512 z"
     id="path848"
     style="fill:#d30014;fill-opacity:1;stroke-width:6.45958281" />
  <path
     inkscape:connector-curvature="0"
     d="m 243.54043,350.34982 c 2.2996,-1.33068 4.4571,-2.90035 6.45957,-4.70258 2.00247,1.80223 4.15997,3.36544 6.45957,4.70258 v 33.53169 L 250,387.1113 l -6.45957,-3.22979 z"
     id="path846"
     style="fill:#d30014;fill-opacity:1;stroke-width:6.45958281" />
  <path
     inkscape:connector-curvature="0"
     d="m 258.98527,336.34543 25.05673,-25.05671 17.60237,5.8653 c -0.18733,14.09481 -11.67248,25.50243 -25.80604,25.50243 -6.32393,0 -12.21507,-2.27377 -16.85306,-6.31102 z"
     id="path844"
     style="fill:#d30014;fill-opacity:1;stroke-width:6.45958281" />
  <path
     inkscape:connector-curvature="0"
     d="m 321.05541,188.81503 c 7.49958,2.67426 12.91916,9.7798 12.91916,18.19018 0,8.41038 -5.41958,15.51592 -12.91916,18.19019 z"
     id="path842"
     style="fill:#d30014;fill-opacity:1;stroke-width:6.45958281" />
  <path
     d="m 250,77.813558 c 46.3023,0 83.97457,37.672292 83.97457,83.974582 v 19.54669 c -3.77238,-2.85514 -8.11968,-4.99326 -12.91916,-5.96866 v -24.9792 l -13.84288,8.30057 c -14.61805,8.77211 -30.26316,15.41901 -46.63819,19.83092 1.5503,-5.43898 2.34483,-11.08465 2.34483,-16.73032 v -11.40763 l -9.78628,5.87177 c -18.59067,11.15568 -39.66829,17.44732 -61.26913,18.3452 v -12.80934 h -12.91917 v 13.57157 c -4.79948,0.98186 -9.14678,3.11352 -12.91916,5.96867 v -19.54024 c 4.37888,-17.38184 12.45414,-41.39269 20.45988,-52.72241 C 207.9372,78.707239 236.54553,78.158571 250,77.813558 Z"
     id="path838"
     inkscape:connector-curvature="0"
     sodipodi:nodetypes="cscccccsccccccccsc"
     style="fill:#d30014;fill-opacity:1;stroke-width:6.45958281" />
  <path
     inkscape:connector-curvature="0"
     d="m 166.02543,207.00521 c 0,-8.41038 5.41958,-15.51592 12.91916,-18.19018 v 36.3739 c -7.49958,-2.6678 -12.91916,-9.77334 -12.91916,-18.18372 z"
     id="path836"
     style="fill:#d30014;fill-opacity:1;stroke-width:6.45958281" />
  <path
     inkscape:connector-curvature="0"
     d="m 128.50816,286.98776 c 18.47442,-13.79767 30.90912,-33.78361 35.47604,-56.03041 4.43773,3.95326 9.93484,6.72442 16.10373,7.79025 3.4688,19.67589 15.02499,36.57416 31.14811,47.1162 v 13.38426 l -33.25392,11.08464 c -34.59107,-0.29713 -46.02453,-15.96163 -49.47396,-23.34494 z"
     id="path834"
     style="fill:#d30014;fill-opacity:1;stroke-width:6.45958281" />
  <path
     inkscape:connector-curvature="0"
     d="m 372.73207,413.71187 h -36.16074 c 6.55648,-6.94407 10.32241,-16.27816 10.32241,-25.83833 0,-9.909 -4.01786,-19.6113 -11.0265,-26.61994 l -1.89267,-1.89267 v -10.2449 h -12.91916 v 15.59344 l 5.67797,5.67797 c 4.60568,4.60568 7.24119,10.97483 7.24119,17.4861 0,6.51125 -2.63551,12.88039 -7.24119,17.48608 l -5.67797,5.67797 v 2.67428 H 178.94459 v -2.67428 l -5.67797,-5.67797 c -4.60568,-4.60569 -7.24119,-10.97483 -7.24119,-17.48608 0,-6.51127 2.63551,-12.88042 7.24119,-17.4861 l 5.67797,-5.67797 v -15.59344 h -12.91916 v 10.2449 l -1.89267,1.89267 c -7.00864,7.00864 -11.0265,16.71094 -11.0265,26.61994 0,9.56017 3.76593,18.89426 10.32241,25.83833 H 127.26793 V 364.1281 c 0,-13.9204 8.87546,-26.23882 22.08531,-30.6378 l 36.34162,-12.11172 c 2.2673,19.22372 18.63589,34.19703 38.46681,34.19703 2.19626,0 4.34084,-0.239 6.45958,-0.59428 v 36.88422 L 250,401.55493 l 19.37875,-9.68938 v -36.88422 c 2.11874,0.35528 4.26332,0.59428 6.45958,0.59428 19.83092,0 36.19951,-14.97331 38.46681,-34.19703 l 36.34162,12.11172 c 13.20985,4.40544 22.08531,16.7174 22.08531,30.6378 z"
     id="path2"
     style="fill:#d30014;fill-opacity:1;stroke-width:6.45958281" />
  <g
     id="g931"
     style="fill:#2b2626;fill-opacity:1"
     transform="matrix(1.0818867,0,0,1.0818867,-540.7858,-244.75371)">
    <circle
       style="fill:#2b2626;fill-opacity:1;stroke-width:5.97066498"
       id="circle4"
       r="5.970665"
       cy="411.59518"
       cx="701.0788" />
    <circle
       style="fill:#2b2626;fill-opacity:1;stroke-width:5.97066498"
       id="circle6"
       r="5.970665"
       cy="411.59518"
       cx="760.78546" />
    <path
       style="fill:#2b2626;fill-opacity:1;stroke-width:5.97066498"
       id="path8"
       d="m 707.04954,447.41917 c 0,13.17128 10.71137,23.88265 23.88266,23.88265 13.17129,0 23.88266,-10.71137 23.88266,-23.88265 h -11.94133 c 0,6.58564 -5.35569,11.94132 -11.94133,11.94132 -6.58564,0 -11.94133,-5.35568 -11.94133,-11.94132 z"
       inkscape:connector-curvature="0" />
  </g>
</svg>
